# xmcd
#
# Track frame offsets: 
#        150
#        18147
#        40652
#        59792
#        74285
#        96825
#        118342
#        135682
#        155582
#        172320
#        190855
#        209772
#        223290
#        239137
#        253710
#        283367
#        304282
#
# Disc length: 4269 seconds
#
# Revision: 3
# Processed by: cddbd v1.5.2PL0 Copyright (c) Steve Scherf et al.
# Submitted via: ExactAudioCopy v1.3
#
DISCID=1f10ab11
DTITLE=Macy Gray - The Very Best Of Macy Gray
DYEAR=2000
DGENRE=Blues
TTITLE0=I Try
TTITLE1=Do Something
TTITLE2=Still
TTITLE3=Why Didn't You Call Me
TTITLE4=I've Committed Murder
TTITLE5=Sexual Revolution
TTITLE6=Sweet Baby (featuring Erykah Badu)
TTITLE7=Boo
TTITLE8=When I See You
TTITLE9=It Ain't The Money (featuring Pharoahe Monch)
TTITLE10=She Ain't Right For You
TTITLE11=Love Is Gonna Get You
TTITLE12=Walk This Way
TTITLE13=Demons
TTITLE14=When I See You  (Bugz In The Attic Remix)
TTITLE15=I've Committed Murder  (Gang Starr Remix - Main Street mix)
TTITLE16=Sexual Revolution  (Norman Cook Radio Version at 128bpm)
EXTD=
EXTT0=
EXTT1=
EXTT2=
EXTT3=
EXTT4=
EXTT5=
EXTT6=
EXTT7=
EXTT8=
EXTT9=
EXTT10=
EXTT11=
EXTT12=
EXTT13=
EXTT14=
EXTT15=
EXTT16=
PLAYORDER=
